<svg version="1.0" id="Layer_1" xmlns="http://www.w3.org/2000/svg" xmlns:xlink="http://www.w3.org/1999/xlink" x="0px" y="0px" width="100px" height="100px" viewBox="0 0 100 100" enable-background="new 0 0 100 100" xml:space="preserve">
<path d="M33.333,80c0-8.444,1.94-16.895,5.83-23.333c5.56-9.203,5.56-24.131,0-33.333H20.836c-5.56,9.202-5.56,24.131,0,33.333
	c3.89,6.438,5.83,14.889,5.83,23.333v5L20,86.667V90h20v-3.333L33.333,85V80z M26.543,53.22c-3.662-6.063-4.173-16.062-1.53-23.22
	h9.974c2.644,7.158,2.132,17.157-1.53,23.22c-1.341,2.22-2.497,4.651-3.457,7.246C29.04,57.871,27.884,55.439,26.543,53.22z" id="id_101" style="fill: rgb(250, 254, 255);"></path>
<path d="M78.001,43.333C72.666,35.973,70,26.318,70,16.667V10H60v6.667c0,9.652-2.666,19.307-8.001,26.667
	c-3.295,4.264-5.333,10.16-5.333,16.667v23.333c0,3.666,3.001,6.667,6.667,6.667h23.334c3.665,0,6.666-3.001,6.666-6.667V60
	C83.333,53.493,81.296,47.598,78.001,43.333z M76.667,63.333V70H53.333v-6.667H76.667z M64.997,30.516
	c1.539,6.201,4.111,11.911,7.604,16.73c2.006,2.601,3.305,5.892,3.815,9.421H53.584c0.505-3.522,1.78-6.784,3.691-9.258
	C60.84,42.492,63.447,36.738,64.997,30.516z M53.333,83.333v-6.666h23.334v6.666H53.333z" id="id_102" style="fill: rgb(255, 255, 255);"></path>
</svg>