<svg data-name="Your Icons" viewBox="0 0 48 48" xmlns="http://www.w3.org/2000/svg"><path d="M4 34a8 8 0 0 0 12.73 6.44l2 .9a7.59 7.59 0 0 0 6.19 0l10-4.49a4 4 0 0 0 2.32-3.62v-6.29l1.12-.61a3 3 0 0 0 1.22-4.12L37.28 18l1.57-3.2a3 3 0 0 0-1.38-4L27.7 6.27A2.86 2.86 0 0 0 24 7.4L21.83 11l-2.19-3.6A2.91 2.91 0 0 0 17.17 6a2.87 2.87 0 0 0-1.2.27l-9.73 4.55a3 3 0 0 0-1.39 4L6.43 18l-1.92 3.39a4 4 0 0 0 1.55 5.45l.33.18v1.28A7.93 7.93 0 0 0 4 34Zm3.8 4.3A6 6 0 0 1 6 34a5.9 5.9 0 0 1 .49-2.36l.18-.4.14-.24c.08-.14.17-.27.26-.4l.16-.23c.1-.13.21-.26.32-.38l.17-.18a4.35 4.35 0 0 1 .55-.5 7.13 7.13 0 0 1 .73-.48l.29-.16a6.43 6.43 0 0 1 .71-.32l.23-.07c.21-.06.43-.12.65-.16l.26-.05A6.54 6.54 0 0 1 12 28a6.69 6.69 0 0 1 .9.07h.18a5.54 5.54 0 0 1 .8.21l.2.07c.22.08.44.18.65.28l.18.1c.21.12.41.25.6.38l.22.17a6.41 6.41 0 0 1 .55.49l.17.19a4.94 4.94 0 0 1 .36.44 6.12 6.12 0 0 1 .43.69c0 .07.09.14.13.22a6.69 6.69 0 0 1 .39 1 5.62 5.62 0 0 1 .16.71v.19A6.33 6.33 0 0 1 18 34a5.16 5.16 0 0 1-.06.79v.2a6.58 6.58 0 0 1-.15.67s0 .06 0 .09a7.46 7.46 0 0 1-.27.71l-.09.17a4.68 4.68 0 0 1-.3.54l-.08.14a5.9 5.9 0 0 1-.44.58l-.13.15c-.13.14-.27.27-.41.4l-.15.14c-.18.15-.37.29-.57.43l-.16.1-.52.28A5.9 5.9 0 0 1 12 40a6 6 0 0 1-4.2-1.7Zm14-12.38ZM18.28 39v-.05a8.21 8.21 0 0 0 1.19-2.15l.06-.17c.05-.15.09-.3.14-.45s0-.18.07-.28.06-.26.08-.39 0-.27.06-.4 0-.21 0-.32A6 6 0 0 0 20 34a8.45 8.45 0 0 0-.07-1v-.25a6.89 6.89 0 0 0-.26-1.13 4 4 0 0 0 1.15-1.41v-.12 9.81a5.32 5.32 0 0 1-1.27-.39Zm17-5.72A1.94 1.94 0 0 1 34.14 35l-10 4.49a5.26 5.26 0 0 1-1.28.39v-9.81a4 4 0 0 0 3.31 2.31h.29a3.71 3.71 0 0 0 1.85-.49l7-3.83Zm2.59-10A1.06 1.06 0 0 1 38 24a1 1 0 0 1-.47.57h-.05l-10.21 5.57a1.75 1.75 0 0 1-.86.22 1.84 1.84 0 0 1-1.66-1.06l-.92-1.87v-.29l12.64-6.46Zm-15 2.21V13.48l12.06 5.76Zm1-13.81 1.91-3.15a.88.88 0 0 1 .71-.53.86.86 0 0 1 .36.08l9.74 4.55a.94.94 0 0 1 .48.54A1.06 1.06 0 0 1 37 14l-1.63 3.3-11.54-5.56ZM6.6 13.17a.94.94 0 0 1 .48-.54l9.74-4.55a.85.85 0 0 1 .35-.08.88.88 0 0 1 .76.44l1.9 3.15v.15L8.28 17.26 6.65 14a1 1 0 0 1-.05-.83Zm14.23.31v11.93L8.77 19.24ZM6.26 22.36l.94-1.68 12.63 6.46v.29l-.91 1.88a2.39 2.39 0 0 1-.21.34 8.58 8.58 0 0 0-1.23-1.46l-.07-.06c-.23-.21-.46-.4-.7-.58a7.61 7.61 0 0 0-1.7-.94 5.88 5.88 0 0 0-.84-.27l-.18-.05a6 6 0 0 0-.74-.14h-.22A7.46 7.46 0 0 0 12 26a7.88 7.88 0 0 0-1.2.1h-.13a8.34 8.34 0 0 0-1.12.28h-.08L7 25.08a1.9 1.9 0 0 1-.94-1.17 2 2 0 0 1 .2-1.55Z" fill="#ffffff" class="fill-000000"></path><path d="M14.82 35.4a1 1 0 0 0-1.41 0 2.06 2.06 0 0 1-2.83 0 .65.65 0 0 0-.15-.1l.32-.33c.41-.41.29-1-.17-1h-.1l-1.55.23a.88.88 0 0 0-.69.69L8 36.48a.42.42 0 0 0 .42.52.79.79 0 0 0 .58-.25l.09-.09c0 .05.06.11.1.15a4 4 0 0 0 5.66 0 1 1 0 0 0-.03-1.41ZM10.58 32.57a2.06 2.06 0 0 1 2.83 0 1.13 1.13 0 0 0 .18.12l-.34.34c-.41.41-.29 1 .17 1h.1l1.55-.23a.88.88 0 0 0 .69-.69l.24-1.59a.42.42 0 0 0-.43-.52.79.79 0 0 0-.54.25l-.09.09a.71.71 0 0 0-.12-.18 4 4 0 0 0-5.66 0 1 1 0 0 0 0 1.41 1 1 0 0 0 1.42 0Z" fill="#ffffff" class="fill-000000"></path></svg>