<?xml version="1.0" standalone="no"?>
<!DOCTYPE svg PUBLIC "-//W3C//DTD SVG 20010904//EN"
 "http://www.w3.org/TR/2001/REC-SVG-20010904/DTD/svg10.dtd">
<svg version="1.0" xmlns="http://www.w3.org/2000/svg"
 width="1080.000000pt" height="1080.000000pt" viewBox="0 0 1080.000000 1080.000000"
 preserveAspectRatio="xMidYMid meet">

<g transform="translate(0.000000,1080.000000) scale(0.100000,-0.100000)"
fill="#ffffff" stroke="none">
<path d="M1800 5230 l0 -1360 1370 0 1370 0 0 1360 0 1360 -1370 0 -1370 0 0
-1360z m1310 1060 l0 -150 -135 0 -135 0 0 -390 0 -390 168 0 168 0 280 388
280 387 -98 3 -98 3 0 149 0 150 405 0 405 0 0 -150 0 -149 -111 -3 -112 -3
-323 -450 c-178 -247 -324 -452 -323 -455 0 -3 154 -219 342 -480 l342 -475
113 -3 112 -3 0 -149 0 -150 -405 0 -405 0 0 150 0 150 95 0 c52 0 95 2 95 5
0 3 -124 179 -276 390 l-276 385 -189 0 -189 0 0 -390 0 -390 135 0 135 0 0
-150 0 -150 -445 0 -445 0 0 150 0 150 135 0 135 0 0 935 0 935 -135 0 -135 0
0 150 0 150 445 0 445 0 0 -150z"/>
<path d="M4880 6125 c0 -32 2 -35 30 -35 l30 0 0 -265 0 -265 -30 0 c-28 0
-30 -3 -30 -35 l0 -35 100 0 100 0 0 34 c0 30 -3 35 -27 38 l-28 3 -3 113 -3
113 47 -3 c40 -3 49 -7 63 -33 9 -16 40 -66 69 -110 53 -80 53 -80 27 -83 -21
-3 -25 -8 -25 -38 l0 -34 95 0 95 0 0 35 c0 30 -3 35 -23 35 -15 0 -30 11 -42
31 -11 17 -27 42 -35 54 -8 13 -28 45 -44 72 -16 26 -32 50 -35 53 -3 3 -13
18 -22 34 -16 28 -16 29 52 135 38 58 74 116 79 129 6 14 18 22 35 22 22 0 25
4 25 35 l0 35 -95 0 -95 0 0 -34 c0 -30 4 -35 26 -38 25 -3 25 -4 -40 -106
-36 -57 -66 -108 -66 -113 0 -5 -20 -9 -45 -9 l-45 0 0 115 0 115 30 0 c28 0
30 3 30 35 l0 35 -100 0 -100 0 0 -35z"/>
<path d="M5470 6035 c0 -33 2 -35 35 -35 l35 0 0 -220 0 -220 -35 0 c-33 0
-35 -2 -35 -35 l0 -35 115 0 115 0 0 35 c0 34 -1 35 -40 35 l-40 0 0 220 0
220 40 0 c39 0 40 1 40 35 l0 35 -115 0 -115 0 0 -35z"/>
<path d="M5830 6035 c0 -32 2 -35 30 -35 l30 0 0 -220 0 -220 -30 0 c-28 0
-30 -3 -30 -35 l0 -35 192 0 192 0 43 42 43 42 0 206 0 206 -43 42 -43 42
-192 0 -192 0 0 -35z m367 -57 c22 -21 23 -26 23 -197 0 -166 -1 -176 -22
-198 -20 -21 -30 -23 -120 -23 l-98 0 0 220 0 220 97 0 c86 0 99 -3 120 -22z"/>
<path d="M4880 5185 c0 -32 2 -35 30 -35 l30 0 0 -220 0 -220 -30 0 c-28 0
-30 -3 -30 -35 l0 -35 205 0 206 0 -3 88 -3 87 -32 3 -33 3 0 -55 0 -56 -100
0 -100 0 2 218 3 217 38 3 c35 3 37 5 37 38 l0 34 -110 0 -110 0 0 -35z"/>
<path d="M5370 5185 c0 -33 2 -35 35 -35 l35 0 0 -220 0 -220 -35 0 c-33 0
-35 -2 -35 -35 l0 -35 115 0 115 0 0 35 c0 33 -2 35 -35 35 l-35 0 0 220 0
220 35 0 c33 0 35 2 35 35 l0 35 -115 0 -115 0 0 -35z"/>
<path d="M5782 5177 l-42 -43 0 -205 0 -205 43 -42 43 -42 116 0 116 0 46 54
c42 49 46 59 46 105 l0 51 -40 0 -40 0 0 -43 c0 -34 -6 -49 -28 -70 -25 -24
-35 -27 -103 -27 -66 0 -78 3 -97 23 -21 22 -22 32 -22 194 0 167 0 171 25
197 22 23 31 26 96 26 65 0 76 -3 101 -27 22 -21 28 -36 28 -70 l0 -43 40 0
40 0 0 51 c0 46 -4 56 -46 105 l-46 54 -117 0 -117 0 -42 -43z"/>
<path d="M6260 5186 c0 -33 2 -35 38 -38 l37 -3 3 -217 2 -218 -40 0 c-39 0
-40 -1 -40 -35 l0 -35 115 0 115 0 0 35 c0 33 -2 35 -35 35 l-35 0 0 220 0
220 35 0 c33 0 35 2 35 35 l0 35 -115 0 -115 0 0 -34z"/>
<path d="M6730 5185 c0 -24 5 -35 15 -35 21 0 20 -8 -26 -138 -22 -65 -52
-153 -66 -197 -29 -91 -38 -105 -64 -105 -15 0 -19 -7 -19 -35 l0 -35 90 0 90
0 0 35 c0 31 -3 35 -26 35 -19 0 -25 4 -21 14 3 8 11 33 17 55 l11 41 113 0
113 0 17 -43 c22 -57 20 -67 -9 -67 -22 0 -25 -4 -25 -35 l0 -35 95 0 95 0 0
35 c0 30 -3 35 -23 35 -17 0 -27 9 -38 38 -22 53 -39 102 -49 137 -5 17 -27
81 -49 143 -32 92 -37 114 -25 119 8 3 14 19 14 39 l0 34 -115 0 -115 0 0 -35z
m164 -168 c20 -59 36 -112 36 -117 0 -6 -37 -10 -86 -10 -65 0 -85 3 -82 13 3
6 22 63 43 125 21 62 42 109 46 105 4 -5 23 -56 43 -116z"/>
</g>
</svg>
