<svg viewBox="0 0 64 64" xml:space="preserve" xmlns="http://www.w3.org/2000/svg"><path d="M14.968 55.02c-1.154 0-2.367-.577-3.414-1.624l-4.95-4.95c-.925-.924-1.478-1.959-1.599-2.993-.12-1.022.197-1.968.892-2.663l12.727-12.729c2.3-2.299 4.927-3.596 7.968-5.097 3.888-1.92 8.295-4.095 13.246-9.045l.354-.354 4.243 4.242-.354.354c-4.923 4.923-7.067 9.281-8.959 13.126-1.508 3.066-2.811 5.714-5.184 8.087L17.211 54.103a3.105 3.105 0 0 1-2.243.917zM40.19 16.978c-4.921 4.819-9.29 6.975-13.154 8.883-2.962 1.462-5.521 2.725-7.704 4.907L6.605 43.496c-.481.481-.691 1.117-.606 1.839.095.809.549 1.64 1.313 2.403l4.95 4.95c.858.858 1.819 1.331 2.707 1.331.597 0 1.128-.216 1.536-.624l12.728-12.729c2.256-2.256 3.524-4.835 4.994-7.821 1.88-3.822 4.006-8.143 8.797-13.036l-2.834-2.831z" fill="#ffffff" class="fill-37474f"></path><path d="M44.436 20.599a1.49 1.49 0 0 1-1.061-.438l-3.536-3.535a1.504 1.504 0 0 1 0-2.122l1.415-1.414c.566-.563 1.556-.563 2.122 0l3.536 3.536c.282.282.438.659.438 1.061s-.156.778-.438 1.061l-1.414 1.414a1.501 1.501 0 0 1-1.062.437zm-2.122-6.947a.497.497 0 0 0-.354.145l-1.414 1.414a.503.503 0 0 0 0 .708l3.536 3.535c.188.188.52.188.707 0l1.414-1.414c.094-.094.145-.219.145-.354s-.051-.26-.145-.354l-3.535-3.536a.5.5 0 0 0-.354-.144zM17.725 53.589l-.268-.059c-.2-.044-2.076-.551-6.256-4.731-4.182-4.181-4.687-6.057-4.731-6.257l-.059-.268 10.063-10.063.169.942c.001.006.419 1.707 4.458 5.745 4.038 4.038 5.74 4.456 5.756 4.46l.887.199-.632.645-9.387 9.387zM7.537 42.563c.262.603 1.218 2.375 4.372 5.528 3.147 3.147 4.919 4.106 5.528 4.371l8.434-8.433c-.92-.465-2.666-1.612-5.477-4.424-2.812-2.812-3.958-4.557-4.423-5.477l-8.434 8.435z" fill="#ffffff" class="fill-37474f"></path><g fill="#ffffff" class="fill-37474f"><path d="m29.419 27.42-1.832-1.832a119.49 119.49 0 0 0 1.88-.949l1.291 1.291c.279-.109.591-.18.95-.18.112 0 .211.02.316.031l-2.37-2.37-.326.172c-.961.505-1.887.962-2.809 1.417l-.625.309 3.442 3.442a2.896 2.896 0 0 1 .083-1.331zM34.094 27.852c.061.435.025.886-.114 1.299l1.396 1.396c-.331.643-.643 1.27-.946 1.884l-1.839-1.839a2.558 2.558 0 0 1-.883.158c-.147 0-.28-.021-.414-.041l3.416 3.416.363-.738c.43-.872.873-1.772 1.358-2.703l.169-.325-2.506-2.507z"></path></g><path d="M31.707 31.293a2.984 2.984 0 0 1-2.121-.879 3.004 3.004 0 0 1 0-4.242c1.134-1.133 3.108-1.133 4.242 0a3.004 3.004 0 0 1 0 4.242 2.984 2.984 0 0 1-2.121.879zm0-5a2.001 2.001 0 0 0-1.414 3.414c.756.756 2.072.756 2.828 0a2.001 2.001 0 0 0-1.414-3.414zM51.092 11.529a.504.504 0 0 1-.354-.146l-2.121-2.121a.5.5 0 0 1 0-.707l3.535-3.535a.5.5 0 0 1 .707 0l2.121 2.121a.5.5 0 0 1 0 .708l-3.535 3.535a.499.499 0 0 1-.353.145zm-1.414-2.621 1.414 1.414 2.828-2.828-1.414-1.414-2.828 2.828zM50.5 44c-.694 0-1.32-.28-1.861-.833-2.967-3.03-2.73-14.186-2.652-17.852.007-.367.013-.645.013-.815V24h9v.5c0 .17.006.448.014.815.078 3.666.314 14.821-2.652 17.852-.542.553-1.168.833-1.862.833zm-3.507-19-.007.337c-.203 9.556.594 15.319 2.367 17.131.702.717 1.592.717 2.294 0 1.773-1.812 2.57-7.575 2.367-17.131L54.007 25h-7.014z" fill="#ffffff" class="fill-37474f"></path><path fill="#ffffff" d="M50 43h1v15h-1zM39.5 59H25a.5.5 0 0 1 0-1h14.5a.5.5 0 0 1 0 1zM42.5 59H42a.5.5 0 0 1 0-1h.5a.5.5 0 0 1 0 1zM54.5 59h-8a.5.5 0 0 1 0-1h8a.5.5 0 0 1 0 1zM24 11.835c.315.461.704.85 1.165 1.165a4.457 4.457 0 0 0-1.182 1.189 4.542 4.542 0 0 0-1.173-1.173A4.428 4.428 0 0 0 24 11.835zM24 8c0 3.359-1.641 5-5 5 3.344 0 5 1.672 5 5 0-3.359 1.625-5 5-5-3.375 0-5-1.609-5-5zM18.485 20.901c.18.229.385.434.613.614a3.783 3.783 0 0 0-.598.602 3.758 3.758 0 0 0-.618-.617c.223-.177.425-.376.603-.599zM18.5 17.5c0 2.688-1.313 4-4 4 2.675 0 4 1.338 4 4 0-2.688 1.3-4 4-4-2.7 0-4-1.287-4-4zM44.408 12.319l-.966-.259.777-2.9.966.26zM46.743 13.965l-.707-.707 2.122-2.122.707.707zM47.942 16.561l-.259-.966 2.899-.777.259.966z" class="fill-37474f"></path><g fill="#595959" class="fill-37474f"><path d="M48 31h6v1h-6z"></path><path clip-rule="evenodd" fill-rule="evenodd" d="M52 33h1v1h-1zM50 35h1v1h-1zM52 27h1v1h-1zM50 29h1v1h-1zM51 38h1v1h-1z"></path></g></svg>