<svg viewBox="0 0 32 32" xml:space="preserve" xmlns="http://www.w3.org/2000/svg"><g fill="none" stroke="#FFFFFF" stroke-linecap="round" stroke-linejoin="round" stroke-miterlimit="10" stroke-width="2" class="stroke-ffffff"></g><path d="M27 14h-3v-2.667c0-4.411-3.589-8-8-8s-8 3.589-8 8V14H5a1 1 0 0 0 0 2h21v12H6v-9a1 1 0 1 0-2 0v10a1 1 0 0 0 1 1h22a1 1 0 0 0 1-1V15a1 1 0 0 0-1-1zm-17-2.667c0-3.309 2.691-6 6-6s6 2.691 6 6V14H10v-2.667z" fill="#ffffff" class="fill-000000"></path><path d="M20 22c0-2.206-1.794-4-4-4s-4 1.794-4 4 1.794 4 4 4 4-1.794 4-4zm-6 0c0-1.103.897-2 2-2s2 .897 2 2-.897 2-2 2-2-.897-2-2z" fill="#ffffff" class="fill-000000"></path></svg>