<svg xmlns="http://www.w3.org/2000/svg" width="284" height="71" viewBox="0 0 284 71"><path d="M12.276,31.6a.4.4,0,0,0,.4.4h5.745a.4.4,0,0,0,.4-.4V15.874h4.165a.4.4,0,0,0,.4-.37l.4-4.736a.4.4,0,0,0-.4-.437H18.827V6.97a1.426,1.426,0,0,1,1.426-1.427h3.21a.4.4,0,0,0,.4-.4V.4a.4.4,0,0,0-.4-.4H18.04a5.763,5.763,0,0,0-5.763,5.763v4.568H9.4a.4.4,0,0,0-.4.4v4.738a.4.4,0,0,0,.4.4h2.873Z" transform="translate(25 21)" fill="#fec63e" stroke="#707070" stroke-width="1" fill-rule="evenodd"/><g fill="none" stroke="#fec63e" stroke-width="4"><rect width="76" height="71" stroke="none"/><rect x="2" y="2" width="72" height="67" fill="none"/></g><path d="M28.981,22.361a6.62,6.62,0,0,1-6.62,6.62H9.639a6.62,6.62,0,0,1-6.62-6.62V9.638a6.62,6.62,0,0,1,6.62-6.62H22.361a6.62,6.62,0,0,1,6.62,6.62V22.361ZM32,9.638A9.639,9.639,0,0,0,22.36,0H9.64A9.638,9.638,0,0,0,0,9.638V22.361A9.64,9.64,0,0,0,9.64,32H22.36A9.64,9.64,0,0,0,32,22.36ZM16.054,21.268a5.062,5.062,0,1,1,5.062-5.062,5.068,5.068,0,0,1-5.062,5.062Zm0-12.964a7.9,7.9,0,1,0,7.9,7.9,7.911,7.911,0,0,0-7.9-7.9Zm8.364-2.413A1.881,1.881,0,1,0,26.3,7.772a1.882,1.882,0,0,0-1.882-1.881Z" transform="translate(126 21)" fill="#fec63e"/><g transform="translate(104)" fill="none" stroke="#fec63e" stroke-width="4"><rect width="76" height="71" stroke="none"/><rect x="2" y="2" width="72" height="67" fill="none"/></g><path d="M31.88,6.16a13.172,13.172,0,0,1-3.232.923c.52-.088,1.288-1.03,1.595-1.412a5.947,5.947,0,0,0,1.076-1.96c.028-.056.05-.126-.006-.169a.188.188,0,0,0-.172.015A16.517,16.517,0,0,1,27.3,5.027a.258.258,0,0,1-.265-.07,3.1,3.1,0,0,0-.335-.344,6.8,6.8,0,0,0-1.86-1.14,6.477,6.477,0,0,0-2.853-.46,6.826,6.826,0,0,0-2.707.765A6.982,6.982,0,0,0,17.1,5.56a6.7,6.7,0,0,0-1.3,2.612,7.108,7.108,0,0,0-.07,2.757c.022.154.008.175-.131.154C10.319,10.3,5.949,8.412,2.4,4.37c-.154-.176-.238-.176-.364.013-1.553,2.328-.8,6.067,1.14,7.905.259.245.524.49.811.713a6.717,6.717,0,0,1-2.546-.713c-.154-.1-.231-.041-.245.133a3.99,3.99,0,0,0,.042.756,6.767,6.767,0,0,0,4.17,5.394,3.94,3.94,0,0,0,.846.258,7.541,7.541,0,0,1-2.5.078c-.182-.036-.252.055-.182.23A7.019,7.019,0,0,0,8.821,23.53c.238.042.476.042.714.1-.014.021-.028.021-.042.042-.59.9-2.632,1.567-3.583,1.9a12.845,12.845,0,0,1-5.442.7c-.292-.043-.354-.04-.433,0s-.01.12.084.195c.37.245.748.462,1.133.672A17.95,17.95,0,0,0,4.89,28.588c6.537,1.805,13.9.479,18.81-4.4,3.853-3.83,5.2-9.111,5.2-14.4,0-.206.244-.32.39-.43A12.646,12.646,0,0,0,31.842,6.7.774.774,0,0,0,32,6.188V6.16C32,6.076,32.01,6.1,31.88,6.16Z" transform="translate(230 19.001)" fill="#fec63e" fill-rule="evenodd"/><g transform="translate(208)" fill="none" stroke="#fec63e" stroke-width="4"><rect width="76" height="71" stroke="none"/><rect x="2" y="2" width="72" height="67" fill="none"/></g></svg>